Patient4_TMGait_0pt7_02_right_13_EMG.mot
version=1
nRows=29
nColumns=33
inDegrees=no
endheader
time	1LAddLong	2LGlutMax	3LGlutMed	4LIliopsoas	5LSemiMemb	6LBicFemLong	7LRecFem	8LVastMed	9LVastLat	10LGasMed	11LTibAnt	12lTibPost	13LPeroneusLong	14LSol	15LExtDigLong	16LFlexDigLong	17RAddLong	18RGlutMax	19RGlutMed	20RIliopsoas	21RSemiMemb	22RBicFemLong	23RRecFem	24RVastMed	25RVastLat	26RGasMed	27RTibAnt	28RTibPost	29RPeroneusLong	30RSol	31RExtDigLong	32RFlexDigLong
15.19	0.0177	-0.11246	0.023651	-0.003815	0.103	0.12848	0.11826	-0.000305	-0.010986	-0.014343	0.39047	0.00412	0.056	0.032501	0.23377	-0.00061	-0.02655	0.054626	0.92026	0.26291	-0.096588	0.057526	-0.054321	-0.001373	-0.010986	0.014191	-0.20218	-0.003357	0.12405	0.094604	-0.003357	-0.00473
15.191	0.019836	-0.1358	0.024567	0.009155	0.071869	0.080109	0.10315	-0.000153	0.007019	0.029297	0.047302	-0.002594	-0.046234	-0.13336	-0.17609	-0.005493	-0.013123	-0.021667	0.66986	0.38864	-0.017242	0.070648	-0.008392	0.02243	0.020905	0.019989	-0.354	-0.002899	0.033722	0.037231	-0.002747	-0.012054
15.192	0.019531	-0.12955	0.005188	0.01236	0.047455	0.017853	0.13138	-0.001526	-0.027008	0.097046	-0.10574	-0.003052	-0.10788	-0.1297	-0.011749	-0.016785	0.001373	-0.11353	-0.12238	0.28473	0.11231	0.11398	-0.024567	-0.072632	-0.014954	0.011749	-0.31632	-0.002594	-0.064697	0.013428	-0.007324	-0.009918
15.193	-0.00885	-0.1091	0.05661	0.023346	0.035095	-0.064087	0.14465	-0.002441	-0.085144	0.30746	-0.076141	0.000458	-0.064392	-0.030518	-0.21255	-0.014954	0.023041	-0.11734	0.078888	0.093689	0.075989	0.10071	-0.030365	-0.057678	-0.000153	0.014648	-0.039825	0.002136	-0.056458	-0.030365	-0.003662	-0.013123
15.194	0.00412	-0.091248	0.13077	0.014496	0.018311	-0.050812	0.15564	0.00061	-0.067902	0.0737	0.010986	-0.000458	-0.025482	-0.037842	-0.15167	-0.014954	0.031891	-0.097351	0.13718	0.053101	0.048828	0.074768	0.009308	-0.075989	0.004883	0.015411	0.22888	0.001526	0.04425	-0.045166	0.001526	-0.004272
15.195	0.000305	-0.11215	0.059052	0.01358	0.014343	-0.011597	0.15549	0.015259	-0.067749	0.12207	0.032654	0.005646	-0.026398	-0.085907	-0.10346	-0.01236	0.023346	-0.075531	-0.016632	0.009766	0.041809	0.069427	-0.024719	-0.061646	0.007019	0.015259	0.31189	0.002899	0.046082	0.04715	-0.001831	-0.006409
15.196	0.004272	-0.093842	0.013428	0.014648	0.019226	0.07019	0.094757	0.015259	-0.041809	0.42252	-0.061035	0.008545	-0.010986	-0.035248	-0.1387	0.000305	0.031738	-0.087433	-0.082245	-0.00061	0.01297	0.054626	-0.009155	-0.052795	-0.010681	0.007324	0.099335	-0.001984	0.017395	0.1445	0.001373	-0.007629
15.197	0.014648	-0.10361	0.044708	-0.003662	0.013123	0.07309	-0.014496	0.022583	0.016022	0.4303	-0.25375	0.011139	0.026398	-0.047607	0.15717	-0.006104	0.002747	-0.095825	0.11276	-0.020447	-0.069733	0.076141	0.009308	-0.024872	-0.009003	0.008545	-0.15152	0.003662	0.019379	0.074921	-0.002289	-0.002289
15.198	0.009613	-0.097198	0.054932	0.01358	0.018311	0.040436	-0.12589	0.019073	0.12528	0.29846	-0.075836	0.018463	0.0177	-0.062866	0.070801	0.000305	-0.016785	-0.03891	0.31174	-0.021667	-0.13184	0.1059	0.020142	-0.066833	-0.002136	0.006866	-0.12726	0.002594	0.0354	0.046387	0.001526	0.001678
15.199	0.019379	-0.099945	0.017242	0.014648	0.048981	0.050964	-0.10208	-0.007019	0.055084	-0.051422	0.064545	0.008087	-0.070953	0.011292	0.33981	0.006714	-0.014496	-0.039825	0.33554	-0.022125	-0.014648	0.11032	0.046997	-0.041656	-0.009918	0.010834	-0.031738	0.006561	0.016327	0.016327	0.000305	-0.007019
15.2	0.011597	-0.096436	-0.011749	0.013275	0.02182	0.045319	-0.084381	-0.016479	-0.13641	-0.63263	0.067139	0.00946	-0.12436	0.10544	0.61798	0.002594	-0.000916	-0.007935	0.10254	-0.060425	0.023041	0.10941	0.004883	-0.048523	-0.013885	0.007019	0.060272	0.000763	0.031433	-0.010834	-0.002747	-0.001526
15.201	-0.002289	-0.066986	-0.037842	0.001373	0.003662	0.066986	0.003967	-0.020142	-0.006104	-0.47348	0.092926	0.009613	-0.13458	0.10773	0.041809	0.000458	0.018768	0.000916	-0.18951	-0.062866	-0.019989	0.090179	-0.00946	-0.058594	-0.011749	0.008392	0.095825	0.005493	-0.002747	-0.037537	-0.002441	-0.001984
15.202	-0.002594	-0.055084	0.004883	0.024872	-0.029602	-0.009918	0.16403	-0.008392	-0.11902	-0.24277	-0.009613	0.005646	0.00061	0.15671	-0.1445	-0.003662	0.00885	0.012054	-0.45624	-0.085297	-0.025635	0.094604	-0.019684	-0.036163	0.001068	0.015411	0.10193	-0.000305	-0.037689	-0.029602	-0.006561	-0.005341
15.203	0.000305	-0.07019	0.012817	0.014191	-0.020905	-0.066833	0.15778	-0.007172	-0.046692	-0.14923	0.053558	0.004272	0.048981	0.19592	-0.27268	0.008545	-0.028992	-0.01358	-0.57663	-0.014648	0.043945	0.17212	-0.03891	0.013123	0.010986	0.007935	0.1355	0.003967	-0.17792	-0.020447	-0.00061	-0.007629
15.204	-0.005188	-0.053101	-0.007324	-0.015564	0.026703	-0.027924	0.12405	-0.002136	0.021667	-0.094604	0.18219	0.002899	0.017548	0.15366	-0.30472	0.000153	-0.028992	0.010529	-0.42664	-0.052338	0.1326	0.20706	-0.027008	-0.008392	0.01236	0.011292	0.14221	0.002289	-0.046844	-0.024872	-0.002747	-0.006256
15.205	0.004578	-0.008087	0.014038	-0.018158	0.03067	0.017395	0.17273	-0.004425	0.031738	-0.081329	0.10239	0.004272	0.081024	0.14786	0.096588	-0.003204	-0.038452	0.002594	0.17838	-0.16892	0.1239	0.15091	0.012512	-0.029144	0.018616	0.000763	0.10941	0.005188	0.06134	-0.050049	-0.003052	-0.007629
15.206	-0.000305	0.005341	0.016327	-0.004883	0.031433	0.053711	0.11536	0.007782	0.027161	-0.090637	0.027618	-0.001678	0.1265	0.11383	0.14603	-0.001526	-0.015106	-0.019531	0.50186	-0.19379	-0.11093	0.091095	0.003815	0.007629	-0.002899	0.008698	0.081177	0.009766	0.023346	-0.079193	-0.00061	-0.005646
15.207	0.011444	-0.022888	0.053558	0.01297	0.039063	0.04303	0.044403	-0.006561	0.15976	-0.079193	-0.18601	0.005798	0.15518	0.10284	-0.64026	0.001678	-0.0177	-0.11047	0.29388	-0.11475	-0.073395	0.042877	-0.003967	-0.026703	-0.000305	0.007172	0.051422	0.00351	-0.032043	-0.067596	-0.002594	-0.004578
15.208	0.00824	-0.025787	0.007324	0.003662	0.022583	0.024261	0.033417	0.003357	-0.009155	-0.041351	-0.27435	-0.000916	0.10315	0.11871	-0.037537	-0.002136	-0.005035	-0.13855	-0.043793	-0.035553	-0.089111	0.029297	0.030518	-0.031586	0.001678	0.010986	0.062561	0.002594	-0.029755	-0.059967	-0.003204	-0.005951
15.209	0.000153	-0.026703	0.09903	0.00061	0.010986	0.008392	0.006104	0.019684	-0.045319	-0.023499	-0.12253	-0.00412	-0.020599	-0.031433	-0.42419	-0.005341	-0.009918	-0.010834	0.02121	0.051575	-0.030212	0.045776	0.011292	-0.049896	0.00351	0.008087	0.065613	0.00412	-0.042267	-0.025482	-0.002441	-0.005798
15.21	0.009155	-0.002441	0.077057	-0.00061	0.007172	0.0177	0.027008	0.014954	-0.033875	-0.01709	-0.019684	0.000153	-0.031281	-0.059662	-0.24765	-0.014954	0.006866	-0.04364	-0.094452	0.15411	-0.15152	0.030975	-0.009155	-0.032349	0.005798	0.00885	0.073547	0.003052	-0.057831	-0.016174	0.000916	-0.004272
15.211	-0.007477	-0.057831	0.08255	0.024414	0.03006	0.024719	0.047455	0.004883	0.12161	-0.064087	0.033875	-0.001984	0.03067	-0.018616	-0.058899	-0.008545	0.011292	-0.059814	-0.29404	0.15106	-0.22064	-0.033569	0.043488	-0.063934	0.007935	0.015106	0.071869	0.00351	-0.070648	-0.036316	-0.002747	0.002747
15.212	-0.009003	-0.072021	0.0177	0.017548	-0.000458	0.028992	0.037231	-0.015106	0.12131	-0.06958	0.16571	0.006714	0.054474	0.027771	-0.002289	0.007172	0.012054	-0.065613	-0.45776	0.076599	-0.056152	-0.10681	0	-0.027924	0.011139	0.010071	0.077515	0.004272	-0.04425	-0.032501	-0.001678	0.002289
15.213	-0.013733	-0.081329	0.046997	-0.007324	-0.029297	0.053253	0.055847	-0.013885	0.05249	-0.068512	0.15945	0.000916	0.083466	0.042419	0.11108	-0.014038	0.018921	-0.089264	-0.36713	0.050964	0.22553	-0.079041	-0.000916	-0.05661	0.02594	0.011444	0.098724	0.003967	0.05249	-0.038452	-0.002747	0.005798
15.214	-0.030365	-0.085297	0.044403	-0.00061	-0.058746	0.036163	0.159	-0.002899	0.057983	-0.058899	0.054016	0.001984	0.041962	0.10819	-0.12695	-0.00351	0.024567	-0.048065	-0.16251	0.032043	0.22369	0.10223	-0.019379	-0.022583	0.021515	0.006104	0.071869	0.003204	0.09201	-0.038757	-0.003052	0.002289
15.215	-0.031433	-0.089722	0.005035	0.011292	-0.053101	0.028839	0.18829	-0.010681	0.058746	-0.04303	-0.044403	-0.002747	-0.021362	0.13275	-0.24231	-0.000458	0.041046	-0.078583	-0.36133	0.032349	0.079346	0.065765	-0.000763	-0.09491	0.004578	0.013123	0.073395	0.002899	0.050812	-0.041199	-0.002747	0.015869
15.216	-0.023346	-0.080566	-0.008698	0	-0.018463	0.013428	0.16495	-0.018768	0.03006	-0.036621	-0.32013	0.004272	-0.003662	0.099945	-0.020905	-0.074768	0.051422	-0.11597	-0.50018	0.055542	-0.16693	-0.009613	-0.019836	-0.097198	0.01358	0.009155	0.072174	0.002899	0.023346	-0.037384	-0.002136	0.003052
15.217	-0.006409	-0.078125	-0.019836	0.015869	0.053711	0.009766	0.15656	-0.015259	0.031738	-0.042572	-0.18967	0.00061	0.04364	0.025787	-0.026855	-0.71426	0.02182	-0.091553	-0.23041	0.025482	-0.37216	0.094757	0.059967	-0.087128	0.005188	0.010376	0.071564	0.003967	-0.007172	-0.032349	-0.007477	0.002136
15.218	0.02121	-0.083923	-0.056763	0.024261	0.13489	-0.052032	0.15396	-0.01358	0.033569	-0.033264	-0.096893	0.006866	0.075836	0.046082	0.23712	0.82672	-0.015564	-0.068665	0.54977	-0.041046	-0.34927	0.10651	0.005188	0.006256	0.03418	0.013123	0.074005	0.003204	-0.024414	-0.027313	-0.003662	0.004272
